<?xml version="1.0" standalone="no"?>
<!DOCTYPE svg PUBLIC "-//W3C//DTD SVG 20010904//EN"
 "http://www.w3.org/TR/2001/REC-SVG-20010904/DTD/svg10.dtd">
<svg version="1.0" xmlns="http://www.w3.org/2000/svg"
 width="16.000000pt" height="16.000000pt" viewBox="0 0 16.000000 16.000000"
 preserveAspectRatio="xMidYMid meet">

<g transform="translate(0.000000,16.000000) scale(0.100000,-0.100000)"
fill="#000000" stroke="none">
<path d="M4 147 c-3 -8 -4 -43 -2 -78 l3 -64 75 0 75 0 0 75 0 75 -73 3 c-55
2 -74 -1 -78 -11z m66 -44 c10 -17 10 -17 20 0 18 29 30 19 29 -25 -1 -39 -2
-40 -8 -13 -7 29 -7 29 -15 8 -9 -29 -23 -29 -32 0 -8 21 -8 21 -15 -8 -6 -27
-7 -26 -8 13 -1 44 11 54 29 25z"/>
</g>
</svg>
